{
	"asset":{
		"generator":"Khronos glTF Blender I/O v4.4.56",
		"version":"2.0"
	},
	"scene":0,
	"scenes":[
		{
			"name":"Scene",
			"nodes":[
				0,
				1,
				2,
				3,
				4
			]
		}
	],
	"nodes":[
		{
			"mesh":0,
			"name":"Cube",
			"scale":[
				0.9065702557563782,
				1,
				1
			],
			"translation":[
				7.181397438049316,
				2.12349009513855,
				0
			]
		},
		{
			"mesh":1,
			"name":"Sphere.001",
			"rotation":[
				0,
				-0.2056303322315216,
				0,
				0.9786297678947449
			],
			"scale":[
				0.14055444300174713,
				0.2376178503036499,
				0.04152576997876167
			],
			"translation":[
				6.852294445037842,
				1.9229271411895752,
				0.7825255393981934
			]
		},
		{
			"mesh":2,
			"name":"Sphere.002",
			"rotation":[
				0,
				0.13974490761756897,
				0,
				0.9901876449584961
			],
			"scale":[
				0.14055444300174713,
				0.2376178503036499,
				0.04152576997876167
			],
			"translation":[
				7.414475440979004,
				1.9183080196380615,
				0.8046720623970032
			]
		},
		{
			"mesh":3,
			"name":"Torus",
			"rotation":[
				-0.6587336659431458,
				-0.014186213724315166,
				-0.011517459526658058,
				0.7521542906761169
			],
			"scale":[
				0.1871480643749237,
				0.04698032885789871,
				0.14403928816318512
			],
			"translation":[
				7.1483473777771,
				1.3010730743408203,
				0.8093667030334473
			]
		},
		{
			"mesh":4,
			"name":"Cube.001",
			"rotation":[
				-0.06648968160152435,
				0,
				0,
				0.9977871179580688
			],
			"scale":[
				0.8895633220672607,
				1.156140923500061,
				0.5104351043701172
			],
			"translation":[
				7.140379428863525,
				1.7816284894943237,
				0.6798455119132996
			]
		}
	],
	"materials":[
		{
			"doubleSided":true,
			"name":"ghost",
			"pbrMetallicRoughness":{
				"baseColorFactor":[
					0.7026655077934265,
					0.8015156984329224,
					0.7568161487579346,
					1
				],
				"metallicFactor":0,
				"roughnessFactor":0.5
			}
		},
		{
			"doubleSided":true,
			"name":"eyes",
			"pbrMetallicRoughness":{
				"baseColorFactor":[
					0,
					0,
					0,
					1
				],
				"metallicFactor":0.4645669460296631,
				"roughnessFactor":0.27165353298187256
			}
		},
		{
			"doubleSided":true,
			"name":"Material.003",
			"pbrMetallicRoughness":{
				"baseColorFactor":[
					0.8004899024963379,
					0.6080908179283142,
					0.07530128210783005,
					1
				],
				"metallicFactor":0,
				"roughnessFactor":0.5
			}
		},
		{
			"doubleSided":true,
			"name":"eyes.001",
			"pbrMetallicRoughness":{
				"baseColorFactor":[
					0,
					0,
					0,
					1
				],
				"metallicFactor":0.4645669460296631,
				"roughnessFactor":0.27165353298187256
			}
		}
	],
	"meshes":[
		{
			"name":"Cube",
			"primitives":[
				{
					"attributes":{
						"POSITION":0,
						"NORMAL":1,
						"TEXCOORD_0":2
					},
					"indices":3,
					"material":0
				}
			]
		},
		{
			"name":"Sphere.003",
			"primitives":[
				{
					"attributes":{
						"POSITION":4,
						"NORMAL":5,
						"TEXCOORD_0":6
					},
					"indices":7,
					"material":1
				}
			]
		},
		{
			"name":"Sphere.004",
			"primitives":[
				{
					"attributes":{
						"POSITION":8,
						"NORMAL":9,
						"TEXCOORD_0":10
					},
					"indices":7,
					"material":1
				}
			]
		},
		{
			"name":"Torus",
			"primitives":[
				{
					"attributes":{
						"POSITION":11,
						"NORMAL":12,
						"TEXCOORD_0":13
					},
					"indices":14,
					"material":1
				}
			]
		},
		{
			"name":"Cube.002",
			"primitives":[
				{
					"attributes":{
						"POSITION":15,
						"NORMAL":16,
						"TEXCOORD_0":17
					},
					"indices":18,
					"material":2
				},
				{
					"attributes":{
						"POSITION":19,
						"NORMAL":20,
						"TEXCOORD_0":21
					},
					"indices":22,
					"material":1
				},
				{
					"attributes":{
						"POSITION":23,
						"NORMAL":24,
						"TEXCOORD_0":25
					},
					"indices":26,
					"material":3
				}
			]
		}
	],
	"accessors":[
		{
			"bufferView":0,
			"componentType":5126,
			"count":51753,
			"max":[
				0.8346918225288391,
				0.7317801713943481,
				0.8346918821334839
			],
			"min":[
				-0.8346918225288391,
				-1.8485941886901855,
				-0.8346918821334839
			],
			"type":"VEC3"
		},
		{
			"bufferView":1,
			"componentType":5126,
			"count":51753,
			"type":"VEC3"
		},
		{
			"bufferView":2,
			"componentType":5126,
			"count":51753,
			"type":"VEC2"
		},
		{
			"bufferView":3,
			"componentType":5123,
			"count":307200,
			"type":"SCALAR"
		},
		{
			"bufferView":4,
			"componentType":5126,
			"count":559,
			"max":[
				0.9999997019767761,
				1,
				0.9999993443489075
			],
			"min":[
				-0.9999990463256836,
				-1,
				-1
			],
			"type":"VEC3"
		},
		{
			"bufferView":5,
			"componentType":5126,
			"count":559,
			"type":"VEC3"
		},
		{
			"bufferView":6,
			"componentType":5126,
			"count":559,
			"type":"VEC2"
		},
		{
			"bufferView":7,
			"componentType":5123,
			"count":2880,
			"type":"SCALAR"
		},
		{
			"bufferView":8,
			"componentType":5126,
			"count":559,
			"max":[
				0.9999997019767761,
				1,
				0.9999993443489075
			],
			"min":[
				-0.9999990463256836,
				-1,
				-1
			],
			"type":"VEC3"
		},
		{
			"bufferView":9,
			"componentType":5126,
			"count":559,
			"type":"VEC3"
		},
		{
			"bufferView":10,
			"componentType":5126,
			"count":559,
			"type":"VEC2"
		},
		{
			"bufferView":11,
			"componentType":5126,
			"count":297,
			"max":[
				1.2074073553085327,
				0.25,
				1.25
			],
			"min":[
				-1.2074073553085327,
				-0.25,
				0.194114089012146
			],
			"type":"VEC3"
		},
		{
			"bufferView":12,
			"componentType":5126,
			"count":297,
			"type":"VEC3"
		},
		{
			"bufferView":13,
			"componentType":5126,
			"count":297,
			"type":"VEC2"
		},
		{
			"bufferView":14,
			"componentType":5123,
			"count":1500,
			"type":"SCALAR"
		},
		{
			"bufferView":15,
			"componentType":5126,
			"count":1930,
			"max":[
				0.8358157873153687,
				0.8358157873153687,
				0.8303177952766418
			],
			"min":[
				-0.8358157873153687,
				-0.8358157873153687,
				0.015305547043681145
			],
			"type":"VEC3"
		},
		{
			"bufferView":16,
			"componentType":5126,
			"count":1930,
			"type":"VEC3"
		},
		{
			"bufferView":17,
			"componentType":5126,
			"count":1930,
			"type":"VEC2"
		},
		{
			"bufferView":18,
			"componentType":5123,
			"count":10752,
			"type":"SCALAR"
		},
		{
			"bufferView":19,
			"componentType":5126,
			"count":1118,
			"max":[
				0.441593199968338,
				0.2936321794986725,
				0.8677536249160767
			],
			"min":[
				-0.4955132007598877,
				-0.1275785267353058,
				0.6226679682731628
			],
			"type":"VEC3"
		},
		{
			"bufferView":20,
			"componentType":5126,
			"count":1118,
			"type":"VEC3"
		},
		{
			"bufferView":21,
			"componentType":5126,
			"count":1118,
			"type":"VEC2"
		},
		{
			"bufferView":22,
			"componentType":5123,
			"count":5760,
			"type":"SCALAR"
		},
		{
			"bufferView":23,
			"componentType":5126,
			"count":297,
			"max":[
				0.2446615993976593,
				-0.2565666437149048,
				0.7953558564186096
			],
			"min":[
				-0.2633666694164276,
				-0.3897642195224762,
				0.7211453914642334
			],
			"type":"VEC3"
		},
		{
			"bufferView":24,
			"componentType":5126,
			"count":297,
			"type":"VEC3"
		},
		{
			"bufferView":25,
			"componentType":5126,
			"count":297,
			"type":"VEC2"
		},
		{
			"bufferView":26,
			"componentType":5123,
			"count":1500,
			"type":"SCALAR"
		}
	],
	"bufferViews":[
		{
			"buffer":0,
			"byteLength":621036,
			"byteOffset":0,
			"target":34962
		},
		{
			"buffer":0,
			"byteLength":621036,
			"byteOffset":621036,
			"target":34962
		},
		{
			"buffer":0,
			"byteLength":414024,
			"byteOffset":1242072,
			"target":34962
		},
		{
			"buffer":0,
			"byteLength":614400,
			"byteOffset":1656096,
			"target":34963
		},
		{
			"buffer":0,
			"byteLength":6708,
			"byteOffset":2270496,
			"target":34962
		},
		{
			"buffer":0,
			"byteLength":6708,
			"byteOffset":2277204,
			"target":34962
		},
		{
			"buffer":0,
			"byteLength":4472,
			"byteOffset":2283912,
			"target":34962
		},
		{
			"buffer":0,
			"byteLength":5760,
			"byteOffset":2288384,
			"target":34963
		},
		{
			"buffer":0,
			"byteLength":6708,
			"byteOffset":2294144,
			"target":34962
		},
		{
			"buffer":0,
			"byteLength":6708,
			"byteOffset":2300852,
			"target":34962
		},
		{
			"buffer":0,
			"byteLength":4472,
			"byteOffset":2307560,
			"target":34962
		},
		{
			"buffer":0,
			"byteLength":3564,
			"byteOffset":2312032,
			"target":34962
		},
		{
			"buffer":0,
			"byteLength":3564,
			"byteOffset":2315596,
			"target":34962
		},
		{
			"buffer":0,
			"byteLength":2376,
			"byteOffset":2319160,
			"target":34962
		},
		{
			"buffer":0,
			"byteLength":3000,
			"byteOffset":2321536,
			"target":34963
		},
		{
			"buffer":0,
			"byteLength":23160,
			"byteOffset":2324536,
			"target":34962
		},
		{
			"buffer":0,
			"byteLength":23160,
			"byteOffset":2347696,
			"target":34962
		},
		{
			"buffer":0,
			"byteLength":15440,
			"byteOffset":2370856,
			"target":34962
		},
		{
			"buffer":0,
			"byteLength":21504,
			"byteOffset":2386296,
			"target":34963
		},
		{
			"buffer":0,
			"byteLength":13416,
			"byteOffset":2407800,
			"target":34962
		},
		{
			"buffer":0,
			"byteLength":13416,
			"byteOffset":2421216,
			"target":34962
		},
		{
			"buffer":0,
			"byteLength":8944,
			"byteOffset":2434632,
			"target":34962
		},
		{
			"buffer":0,
			"byteLength":11520,
			"byteOffset":2443576,
			"target":34963
		},
		{
			"buffer":0,
			"byteLength":3564,
			"byteOffset":2455096,
			"target":34962
		},
		{
			"buffer":0,
			"byteLength":3564,
			"byteOffset":2458660,
			"target":34962
		},
		{
			"buffer":0,
			"byteLength":2376,
			"byteOffset":2462224,
			"target":34962
		},
		{
			"buffer":0,
			"byteLength":3000,
			"byteOffset":2464600,
			"target":34963
		}
	],
	"buffers":[
		{
			"byteLength":2467600,
			"uri":"data:application/octet-stream;base64,"
		}
	]
}
