{
	"asset":{
		"generator":"Khronos glTF Blender I/O v4.4.56",
		"version":"2.0"
	},
	"extensionsUsed":[
		"KHR_materials_specular"
	],
	"scene":0,
	"scenes":[
		{
			"name":"Scene",
			"nodes":[
				0,
				1,
				2,
				3,
				4,
				5,
				6,
				7,
				8
			]
		}
	],
	"nodes":[
		{
			"mesh":0,
			"name":"Cube",
			"rotation":[
				0,
				0.7071068286895752,
				0,
				0.7071068286895752
			],
			"scale":[
				8.541230201721191,
				0.07264398038387299,
				6.8981804847717285
			],
			"translation":[
				0.18291831016540527,
				0,
				-0.0023479461669921875
			]
		},
		{
			"mesh":1,
			"name":"blanket",
			"rotation":[
				0.5,
				0.5,
				-0.5,
				0.5000000596046448
			],
			"scale":[
				0.12512297928333282,
				0.12512297928333282,
				0.12512297928333282
			],
			"translation":[
				1.5629425048828125,
				-0.35945776104927063,
				1.9908379316329956
			]
		},
		{
			"mesh":2,
			"name":"Cube.001",
			"rotation":[
				0.5,
				0.5,
				-0.5,
				0.5000000596046448
			],
			"scale":[
				0.12512297928333282,
				0.12512297928333282,
				0.12512297928333282
			],
			"translation":[
				1.5629425048828125,
				-0.35945776104927063,
				1.9908379316329956
			]
		},
		{
			"mesh":3,
			"name":"Cube.002",
			"rotation":[
				0.5,
				0.5,
				-0.5,
				0.5000000596046448
			],
			"scale":[
				0.12512297928333282,
				0.12512297928333282,
				0.12512297928333282
			],
			"translation":[
				1.5629425048828125,
				-0.35945776104927063,
				1.9908379316329956
			]
		},
		{
			"mesh":4,
			"name":"Cube.018",
			"rotation":[
				0.5,
				0.5,
				-0.5,
				0.5000000596046448
			],
			"scale":[
				0.12512297928333282,
				0.12512297928333282,
				0.12512297928333282
			],
			"translation":[
				1.5629425048828125,
				-0.35945776104927063,
				1.9908379316329956
			]
		},
		{
			"mesh":5,
			"name":"Cube.020",
			"rotation":[
				0.5,
				0.5,
				-0.5,
				0.5000000596046448
			],
			"scale":[
				0.12512297928333282,
				0.12512297928333282,
				0.12512297928333282
			],
			"translation":[
				1.5629425048828125,
				-0.35945776104927063,
				1.9908379316329956
			]
		},
		{
			"mesh":6,
			"name":"Cube.021",
			"rotation":[
				0.5,
				0.5,
				-0.5,
				0.5000000596046448
			],
			"scale":[
				0.12512297928333282,
				0.12512297928333282,
				0.12512297928333282
			],
			"translation":[
				1.5629425048828125,
				-0.35945776104927063,
				1.9908379316329956
			]
		},
		{
			"mesh":7,
			"name":"Cube.022",
			"rotation":[
				0.5,
				0.5,
				-0.5,
				0.5000000596046448
			],
			"scale":[
				0.12512297928333282,
				0.12512297928333282,
				0.12512297928333282
			],
			"translation":[
				1.5629425048828125,
				-0.35945776104927063,
				1.9908379316329956
			]
		},
		{
			"mesh":8,
			"name":"Pillow",
			"rotation":[
				0.5,
				0.5,
				-0.5,
				0.5000000596046448
			],
			"scale":[
				0.12512297928333282,
				0.12512297928333282,
				0.12512297928333282
			],
			"translation":[
				1.5629425048828125,
				-0.35945776104927063,
				1.9908379316329956
			]
		}
	],
	"materials":[
		{
			"doubleSided":true,
			"name":"Material.003",
			"pbrMetallicRoughness":{
				"baseColorFactor":[
					0,
					0,
					0,
					1
				],
				"metallicFactor":0,
				"roughnessFactor":0.5
			}
		},
		{
			"doubleSided":true,
			"name":"Material.002",
			"pbrMetallicRoughness":{
				"baseColorFactor":[
					1,
					0.9157615900039673,
					0.9157615900039673,
					1
				],
				"metallicFactor":0,
				"roughnessFactor":0.5
			}
		},
		{
			"doubleSided":true,
			"extensions":{
				"KHR_materials_specular":{
					"specularFactor":0
				}
			},
			"name":"Material.001",
			"pbrMetallicRoughness":{
				"baseColorFactor":[
					0.800000011920929,
					0.800000011920929,
					0.800000011920929,
					1
				],
				"metallicFactor":0
			}
		}
	],
	"meshes":[
		{
			"name":"Cube.002",
			"primitives":[
				{
					"attributes":{
						"POSITION":0,
						"NORMAL":1,
						"TEXCOORD_0":2
					},
					"indices":3,
					"material":0
				}
			]
		},
		{
			"name":"blanket",
			"primitives":[
				{
					"attributes":{
						"POSITION":4,
						"NORMAL":5,
						"TEXCOORD_0":6
					},
					"indices":7,
					"material":1
				}
			]
		},
		{
			"name":"Cube.003",
			"primitives":[
				{
					"attributes":{
						"POSITION":8,
						"NORMAL":9,
						"TEXCOORD_0":10
					},
					"indices":11
				}
			]
		},
		{
			"name":"Cube.004",
			"primitives":[
				{
					"attributes":{
						"POSITION":12,
						"NORMAL":13,
						"TEXCOORD_0":14
					},
					"indices":11
				}
			]
		},
		{
			"name":"Cube.018",
			"primitives":[
				{
					"attributes":{
						"POSITION":15,
						"NORMAL":16,
						"TEXCOORD_0":17
					},
					"indices":18
				}
			]
		},
		{
			"name":"Cube.020",
			"primitives":[
				{
					"attributes":{
						"POSITION":19,
						"NORMAL":20,
						"TEXCOORD_0":21
					},
					"indices":11
				}
			]
		},
		{
			"name":"Cube.021",
			"primitives":[
				{
					"attributes":{
						"POSITION":22,
						"NORMAL":23,
						"TEXCOORD_0":24
					},
					"indices":11
				}
			]
		},
		{
			"name":"Cube.022",
			"primitives":[
				{
					"attributes":{
						"POSITION":25,
						"NORMAL":26,
						"TEXCOORD_0":27
					},
					"indices":11
				}
			]
		},
		{
			"name":"Pillow",
			"primitives":[
				{
					"attributes":{
						"POSITION":28,
						"NORMAL":29,
						"TEXCOORD_0":30
					},
					"indices":31,
					"material":2
				}
			]
		}
	],
	"accessors":[
		{
			"bufferView":0,
			"componentType":5126,
			"count":24,
			"max":[
				1,
				1,
				1
			],
			"min":[
				-1,
				-1,
				-1
			],
			"type":"VEC3"
		},
		{
			"bufferView":1,
			"componentType":5126,
			"count":24,
			"type":"VEC3"
		},
		{
			"bufferView":2,
			"componentType":5126,
			"count":24,
			"type":"VEC2"
		},
		{
			"bufferView":3,
			"componentType":5123,
			"count":36,
			"type":"SCALAR"
		},
		{
			"bufferView":4,
			"componentType":5126,
			"count":8450,
			"max":[
				20.54252052307129,
				-2.910583019256592,
				-3.1043848991394043
			],
			"min":[
				11.402384757995605,
				-19.190532684326172,
				-7.47727108001709
			],
			"type":"VEC3"
		},
		{
			"bufferView":5,
			"componentType":5126,
			"count":8450,
			"type":"VEC3"
		},
		{
			"bufferView":6,
			"componentType":5126,
			"count":8450,
			"type":"VEC2"
		},
		{
			"bufferView":7,
			"componentType":5123,
			"count":50688,
			"type":"SCALAR"
		},
		{
			"bufferView":8,
			"componentType":5126,
			"count":24,
			"max":[
				19.902536392211914,
				-2.8908300399780273,
				-4.335841178894043
			],
			"min":[
				12.299528121948242,
				-18.157249450683594,
				-6.05730676651001
			],
			"type":"VEC3"
		},
		{
			"bufferView":9,
			"componentType":5126,
			"count":24,
			"type":"VEC3"
		},
		{
			"bufferView":10,
			"componentType":5126,
			"count":24,
			"type":"VEC2"
		},
		{
			"bufferView":11,
			"componentType":5123,
			"count":36,
			"type":"SCALAR"
		},
		{
			"bufferView":12,
			"componentType":5126,
			"count":24,
			"max":[
				13.33919906616211,
				-2.8872950077056885,
				-2.6696419715881348
			],
			"min":[
				12.299524307250977,
				-4.127532005310059,
				-4.335841178894043
			],
			"type":"VEC3"
		},
		{
			"bufferView":13,
			"componentType":5126,
			"count":24,
			"type":"VEC3"
		},
		{
			"bufferView":14,
			"componentType":5126,
			"count":24,
			"type":"VEC2"
		},
		{
			"bufferView":15,
			"componentType":5126,
			"count":397,
			"max":[
				20.53084373474121,
				-2.607182025909424,
				-4.761725902557373
			],
			"min":[
				12.557050704956055,
				-3.1635119915008545,
				-10.696355819702148
			],
			"type":"VEC3"
		},
		{
			"bufferView":16,
			"componentType":5126,
			"count":397,
			"type":"VEC3"
		},
		{
			"bufferView":17,
			"componentType":5126,
			"count":397,
			"type":"VEC2"
		},
		{
			"bufferView":18,
			"componentType":5123,
			"count":1056,
			"type":"SCALAR"
		},
		{
			"bufferView":19,
			"componentType":5126,
			"count":24,
			"max":[
				19.9047908782959,
				-2.8872950077056885,
				-2.6696419715881348
			],
			"min":[
				18.865114212036133,
				-4.127532005310059,
				-4.335841178894043
			],
			"type":"VEC3"
		},
		{
			"bufferView":20,
			"componentType":5126,
			"count":24,
			"type":"VEC3"
		},
		{
			"bufferView":21,
			"componentType":5126,
			"count":24,
			"type":"VEC2"
		},
		{
			"bufferView":22,
			"componentType":5126,
			"count":24,
			"max":[
				19.895116806030273,
				-16.917011260986328,
				-2.6696419715881348
			],
			"min":[
				18.855440139770508,
				-18.157249450683594,
				-4.335841178894043
			],
			"type":"VEC3"
		},
		{
			"bufferView":23,
			"componentType":5126,
			"count":24,
			"type":"VEC3"
		},
		{
			"bufferView":24,
			"componentType":5126,
			"count":24,
			"type":"VEC2"
		},
		{
			"bufferView":25,
			"componentType":5126,
			"count":24,
			"max":[
				13.33919906616211,
				-16.917011260986328,
				-2.6696419715881348
			],
			"min":[
				12.299524307250977,
				-18.157249450683594,
				-4.335841178894043
			],
			"type":"VEC3"
		},
		{
			"bufferView":26,
			"componentType":5126,
			"count":24,
			"type":"VEC3"
		},
		{
			"bufferView":27,
			"componentType":5126,
			"count":24,
			"type":"VEC2"
		},
		{
			"bufferView":28,
			"componentType":5126,
			"count":39,
			"max":[
				18.20772361755371,
				-2.735914945602417,
				-6.900084018707275
			],
			"min":[
				12.937808990478516,
				-6.4504618644714355,
				-10.312278747558594
			],
			"type":"VEC3"
		},
		{
			"bufferView":29,
			"componentType":5126,
			"count":39,
			"type":"VEC3"
		},
		{
			"bufferView":30,
			"componentType":5126,
			"count":39,
			"type":"VEC2"
		},
		{
			"bufferView":31,
			"componentType":5123,
			"count":144,
			"type":"SCALAR"
		}
	],
	"bufferViews":[
		{
			"buffer":0,
			"byteLength":288,
			"byteOffset":0,
			"target":34962
		},
		{
			"buffer":0,
			"byteLength":288,
			"byteOffset":288,
			"target":34962
		},
		{
			"buffer":0,
			"byteLength":192,
			"byteOffset":576,
			"target":34962
		},
		{
			"buffer":0,
			"byteLength":72,
			"byteOffset":768,
			"target":34963
		},
		{
			"buffer":0,
			"byteLength":101400,
			"byteOffset":840,
			"target":34962
		},
		{
			"buffer":0,
			"byteLength":101400,
			"byteOffset":102240,
			"target":34962
		},
		{
			"buffer":0,
			"byteLength":67600,
			"byteOffset":203640,
			"target":34962
		},
		{
			"buffer":0,
			"byteLength":101376,
			"byteOffset":271240,
			"target":34963
		},
		{
			"buffer":0,
			"byteLength":288,
			"byteOffset":372616,
			"target":34962
		},
		{
			"buffer":0,
			"byteLength":288,
			"byteOffset":372904,
			"target":34962
		},
		{
			"buffer":0,
			"byteLength":192,
			"byteOffset":373192,
			"target":34962
		},
		{
			"buffer":0,
			"byteLength":72,
			"byteOffset":373384,
			"target":34963
		},
		{
			"buffer":0,
			"byteLength":288,
			"byteOffset":373456,
			"target":34962
		},
		{
			"buffer":0,
			"byteLength":288,
			"byteOffset":373744,
			"target":34962
		},
		{
			"buffer":0,
			"byteLength":192,
			"byteOffset":374032,
			"target":34962
		},
		{
			"buffer":0,
			"byteLength":4764,
			"byteOffset":374224,
			"target":34962
		},
		{
			"buffer":0,
			"byteLength":4764,
			"byteOffset":378988,
			"target":34962
		},
		{
			"buffer":0,
			"byteLength":3176,
			"byteOffset":383752,
			"target":34962
		},
		{
			"buffer":0,
			"byteLength":2112,
			"byteOffset":386928,
			"target":34963
		},
		{
			"buffer":0,
			"byteLength":288,
			"byteOffset":389040,
			"target":34962
		},
		{
			"buffer":0,
			"byteLength":288,
			"byteOffset":389328,
			"target":34962
		},
		{
			"buffer":0,
			"byteLength":192,
			"byteOffset":389616,
			"target":34962
		},
		{
			"buffer":0,
			"byteLength":288,
			"byteOffset":389808,
			"target":34962
		},
		{
			"buffer":0,
			"byteLength":288,
			"byteOffset":390096,
			"target":34962
		},
		{
			"buffer":0,
			"byteLength":192,
			"byteOffset":390384,
			"target":34962
		},
		{
			"buffer":0,
			"byteLength":288,
			"byteOffset":390576,
			"target":34962
		},
		{
			"buffer":0,
			"byteLength":288,
			"byteOffset":390864,
			"target":34962
		},
		{
			"buffer":0,
			"byteLength":192,
			"byteOffset":391152,
			"target":34962
		},
		{
			"buffer":0,
			"byteLength":468,
			"byteOffset":391344,
			"target":34962
		},
		{
			"buffer":0,
			"byteLength":468,
			"byteOffset":391812,
			"target":34962
		},
		{
			"buffer":0,
			"byteLength":312,
			"byteOffset":392280,
			"target":34962
		},
		{
			"buffer":0,
			"byteLength":288,
			"byteOffset":392592,
			"target":34963
		}
	],
	"buffers":[
		{
			"byteLength":392880,
			"uri":"data:application/octet-stream;base64,"
		}
	]
}
