{
	"asset":{
		"generator":"Khronos glTF Blender I/O v4.4.56",
		"version":"2.0"
	},
	"scene":0,
	"scenes":[
		{
			"name":"Scene",
			"nodes":[
				0,
				1,
				2
			]
		}
	],
	"nodes":[
		{
			"mesh":0,
			"name":"Cylinder.005",
			"rotation":[
				0.7071068286895752,
				0,
				0,
				0.7071068286895752
			],
			"scale":[
				1.8808289766311646,
				1.8808289766311646,
				1.8808289766311646
			],
			"translation":[
				0.009052276611328125,
				-0.21780359745025635,
				0.031094849109649658
			]
		},
		{
			"mesh":1,
			"name":"Cylinder.006",
			"rotation":[
				0.7071068286895752,
				0,
				0,
				0.7071068286895752
			],
			"scale":[
				1.8808289766311646,
				1.8808289766311646,
				1.8808289766311646
			],
			"translation":[
				0.009052276611328125,
				1.2195208072662354,
				0.031094849109649658
			]
		},
		{
			"mesh":2,
			"name":"Cylinder.007",
			"rotation":[
				0.7071068286895752,
				0,
				0,
				0.7071068286895752
			],
			"scale":[
				1.8808289766311646,
				1.8808289766311646,
				1.8808289766311646
			],
			"translation":[
				0.009052276611328125,
				1.2195208072662354,
				0.031094849109649658
			]
		}
	],
	"materials":[
		{
			"doubleSided":true,
			"name":"LAMP_STICK",
			"pbrMetallicRoughness":{
				"baseColorFactor":[
					0.2553200125694275,
					0.2553200125694275,
					0.2553200125694275,
					1
				],
				"metallicFactor":0.25196900963783264
			}
		},
		{
			"doubleSided":true,
			"name":"Material.004",
			"pbrMetallicRoughness":{
				"baseColorFactor":[
					0.800000011920929,
					0.800000011920929,
					0.800000011920929,
					1
				],
				"metallicFactor":0
			}
		},
		{
			"doubleSided":true,
			"emissiveFactor":[
				1,
				0.6731864809989929,
				0.15248367190361023
			],
			"name":"Material.007",
			"pbrMetallicRoughness":{
				"baseColorFactor":[
					0.8050998449325562,
					0.7691231966018677,
					0.7244467735290527,
					1
				],
				"metallicFactor":0
			}
		}
	],
	"meshes":[
		{
			"name":"Cylinder.005",
			"primitives":[
				{
					"attributes":{
						"POSITION":0,
						"NORMAL":1,
						"TEXCOORD_0":2
					},
					"indices":3,
					"material":0
				}
			]
		},
		{
			"name":"Cylinder.006",
			"primitives":[
				{
					"attributes":{
						"POSITION":4,
						"NORMAL":5,
						"TEXCOORD_0":6
					},
					"indices":7,
					"material":1
				}
			]
		},
		{
			"name":"Cylinder.007",
			"primitives":[
				{
					"attributes":{
						"POSITION":8,
						"NORMAL":9,
						"TEXCOORD_0":10
					},
					"indices":11,
					"material":2
				}
			]
		}
	],
	"accessors":[
		{
			"bufferView":0,
			"componentType":5126,
			"count":130,
			"max":[
				0.19066810607910156,
				0.19066905975341797,
				0.02166306972503662
			],
			"min":[
				-0.1906719207763672,
				-0.19066905975341797,
				-0.021663904190063477
			],
			"type":"VEC3"
		},
		{
			"bufferView":1,
			"componentType":5126,
			"count":130,
			"type":"VEC3"
		},
		{
			"bufferView":2,
			"componentType":5126,
			"count":130,
			"type":"VEC2"
		},
		{
			"bufferView":3,
			"componentType":5123,
			"count":372,
			"type":"SCALAR"
		},
		{
			"bufferView":4,
			"componentType":5126,
			"count":872,
			"max":[
				0.06504440307617188,
				0.06501102447509766,
				0.7788026332855225
			],
			"min":[
				-0.06501579284667969,
				-0.0650491714477539,
				-0.14872145652770996
			],
			"type":"VEC3"
		},
		{
			"bufferView":5,
			"componentType":5126,
			"count":872,
			"type":"VEC3"
		},
		{
			"bufferView":6,
			"componentType":5126,
			"count":872,
			"type":"VEC2"
		},
		{
			"bufferView":7,
			"componentType":5123,
			"count":2676,
			"type":"SCALAR"
		},
		{
			"bufferView":8,
			"componentType":5126,
			"count":260,
			"max":[
				0.26699066162109375,
				0.2669973373413086,
				0.2669990062713623
			],
			"min":[
				-0.26700401306152344,
				-0.2669992446899414,
				-0.2669980525970459
			],
			"type":"VEC3"
		},
		{
			"bufferView":9,
			"componentType":5126,
			"count":260,
			"type":"VEC3"
		},
		{
			"bufferView":10,
			"componentType":5126,
			"count":260,
			"type":"VEC2"
		},
		{
			"bufferView":11,
			"componentType":5123,
			"count":768,
			"type":"SCALAR"
		}
	],
	"bufferViews":[
		{
			"buffer":0,
			"byteLength":1560,
			"byteOffset":0,
			"target":34962
		},
		{
			"buffer":0,
			"byteLength":1560,
			"byteOffset":1560,
			"target":34962
		},
		{
			"buffer":0,
			"byteLength":1040,
			"byteOffset":3120,
			"target":34962
		},
		{
			"buffer":0,
			"byteLength":744,
			"byteOffset":4160,
			"target":34963
		},
		{
			"buffer":0,
			"byteLength":10464,
			"byteOffset":4904,
			"target":34962
		},
		{
			"buffer":0,
			"byteLength":10464,
			"byteOffset":15368,
			"target":34962
		},
		{
			"buffer":0,
			"byteLength":6976,
			"byteOffset":25832,
			"target":34962
		},
		{
			"buffer":0,
			"byteLength":5352,
			"byteOffset":32808,
			"target":34963
		},
		{
			"buffer":0,
			"byteLength":3120,
			"byteOffset":38160,
			"target":34962
		},
		{
			"buffer":0,
			"byteLength":3120,
			"byteOffset":41280,
			"target":34962
		},
		{
			"buffer":0,
			"byteLength":2080,
			"byteOffset":44400,
			"target":34962
		},
		{
			"buffer":0,
			"byteLength":1536,
			"byteOffset":46480,
			"target":34963
		}
	],
	"buffers":[
		{
			"byteLength":48016,
			"uri":"data:application/octet-stream;base64,"
		}
	]
}
